<svg width="54" height="54" xmlns="http://www.w3.org/2000/svg" xmlns:xlink="http://www.w3.org/1999/xlink" overflow="hidden"><defs><clipPath id="clip0"><rect x="218" y="506" width="54" height="54"/></clipPath><clipPath id="clip1"><rect x="219" y="507" width="53" height="53"/></clipPath><clipPath id="clip2"><rect x="219" y="507" width="53" height="53"/></clipPath><clipPath id="clip3"><rect x="219" y="507" width="53" height="53"/></clipPath></defs><g clip-path="url(#clip0)" transform="translate(-218 -506)"><g clip-path="url(#clip1)"><g clip-path="url(#clip2)"><g clip-path="url(#clip3)"><path d="M242.74 512.151C241.895 512.239 238.875 516.06 239.797 517.672 241.116 519.974 244.065 519.637 245.815 519.361 247.565 519.085 247.741 518.158 248.846 518.809 249.95 519.461 252.401 521.818 252.583 523.844 252.765 525.87 252.848 530.37 253.229 531.938 253.61 533.505 254.333 535.918 253.605 536.443 252.633 537.122 250.231 534.709 246.676 534.709 242.811 534.709 241.155 537.734 240.355 537.734 239.25 537.734 238.146 535.852 234.392 535.852 229.975 535.852 227.381 540.368 227.381 540.368L227.381 552.1C227.381 552.1 230.737 555.517 234.878 555.517 237.793 555.517 240.244 553.513 241.641 553.309 243.038 553.104 245.958 553.944 247.879 553.623 252.296 552.884 256.161 549.483 258.546 547.915 260.931 546.347 264.547 544.448 265.375 543.531 266.203 542.615 265.193 536.906 262.615 529.911 260.036 522.917 254.057 514.911 252.495 513.901 250.932 512.891 245.406 511.875 242.74 512.151Z" fill="#0BBBD7" fill-rule="nonzero" fill-opacity="1"/></g></g></g></g></svg>