<svg width="197" height="188" xmlns="http://www.w3.org/2000/svg" xmlns:xlink="http://www.w3.org/1999/xlink" overflow="hidden"><defs><clipPath id="clip0"><rect x="4070" y="114" width="197" height="188"/></clipPath><clipPath id="clip1"><rect x="4101" y="130" width="145" height="145"/></clipPath><clipPath id="clip2"><rect x="4101" y="130" width="145" height="145"/></clipPath><clipPath id="clip3"><rect x="4101" y="130" width="145" height="145"/></clipPath></defs><g clip-path="url(#clip0)" transform="translate(-4070 -114)"><path d="M4075.5 210C4075.5 161.123 4117.59 121.5 4169.5 121.5 4221.41 121.5 4263.5 161.123 4263.5 210 4263.5 258.877 4221.41 298.5 4169.5 298.5 4117.59 298.5 4075.5 258.877 4075.5 210Z" stroke="#0BBBD7" stroke-width="4.58333" stroke-linecap="butt" stroke-linejoin="miter" stroke-miterlimit="8" stroke-opacity="1" fill="#0BBBD7" fill-rule="evenodd" fill-opacity="1"/><g clip-path="url(#clip1)"><g clip-path="url(#clip2)"><g clip-path="url(#clip3)"><path d="M4198 176C4198 189.255 4187.25 200 4174 200 4160.75 200 4150 189.255 4150 176 4150 162.745 4160.75 152 4174 152 4187.25 152 4198 162.745 4198 176Z" fill="#FFFFFF" fill-rule="nonzero" fill-opacity="1"/><path d="M4222 254 4222 230C4222 226.4 4220.2 222.8 4217.2 220.4 4210.6 215 4202.2 211.4 4193.8 209 4187.8 207.2 4181.2 206 4174 206 4167.4 206 4160.8 207.2 4154.2 209 4145.8 211.4 4137.4 215.6 4130.8 220.4 4127.8 222.8 4126 226.4 4126 230L4126 254 4222 254Z" fill="#FFFFFF" fill-rule="nonzero" fill-opacity="1"/></g></g></g></g></svg>