<svg width="55" height="55" xmlns="http://www.w3.org/2000/svg" xmlns:xlink="http://www.w3.org/1999/xlink" overflow="hidden"><defs><clipPath id="clip0"><rect x="218" y="434" width="55" height="55"/></clipPath><clipPath id="clip1"><rect x="219" y="435" width="54" height="54"/></clipPath><clipPath id="clip2"><rect x="219" y="435" width="54" height="54"/></clipPath><clipPath id="clip3"><rect x="219" y="435" width="54" height="54"/></clipPath></defs><g clip-path="url(#clip0)" transform="translate(-218 -434)"><g clip-path="url(#clip1)"><g clip-path="url(#clip2)"><g clip-path="url(#clip3)"><path d="M235.899 456.357 237.963 456.357 232.995 444.562 228.014 456.357 230.079 456.357 226.724 463.364 231.705 463.364 231.705 466.5 234.285 466.5 234.285 463.364 239.253 463.364 235.899 456.357Z" fill="#0BBBD7" fill-rule="nonzero" fill-opacity="1"/><path d="M267.26 447.816 268.715 447.816 265.212 439.5 261.701 447.816 263.156 447.816 260.79 452.757 264.303 452.757 264.303 454.968 266.122 454.968 266.122 452.757 269.625 452.757 267.26 447.816Z" fill="#0BBBD7" fill-rule="nonzero" fill-opacity="1"/><path d="M249.856 451.661C252.214 453.257 258.523 456.316 259.591 457.077 261.085 458.14 265.938 460.534 262.204 467.009 258.471 473.485 255.012 478.256 252.723 481.688L221.816 481.688C229.501 475.379 241.331 470.174 246.445 466.485 251.559 462.796 251.836 460.009 249.378 456.938 247.128 454.125 245.11 453.332 244.283 451.639 242.811 448.625 248.127 447.349 249.941 447.375 250.161 447.375 252.191 447.375 252.191 447.375 252.191 447.375 247.497 450.065 249.856 451.661Z" fill="#0BBBD7" fill-rule="nonzero" fill-opacity="1"/></g></g></g></g></svg>